<?xml version="1.0" encoding="UTF-8"?>
<svg width="32px" height="35px" viewBox="0 0 32 35" version="1.1" xmlns="http://www.w3.org/2000/svg" xmlns:xlink="http://www.w3.org/1999/xlink">
    <title>ico_trackers</title>
    <g id="Extension" stroke="none" stroke-width="1" fill="none" fill-rule="evenodd">
        <g id="abs_01_dark_B_1" transform="translate(-88.000000, -182.000000)">
            <g id="ico_trackers" transform="translate(88.000000, 182.000000)">
                <path d="M18.6081934,28.8129356 C19.1942778,28.8095785 19.7827569,29.1736737 20.4769986,29.4061298 C19.6811849,30.9434424 18.4176211,31.6758086 16.8669019,31.9136337 C16.5596611,31.9607353 16.256772,31.989914 15.9587468,31.9979693 L15.7361479,32 C14.4061222,31.9878203 13.177184,31.5316852 12.0960108,30.3399314 C12.8964142,29.8690536 13.5066445,29.2736954 14.2014848,29.150607 C15.646641,28.8944877 17.1360977,28.8221061 18.6081934,28.8129356 L18.6081934,28.8129356 Z M13.7473641,27.3830852 C14.2083294,28.2086352 14.1232156,28.3524035 12.0089965,29.578933 L11.790756,29.7052605 C11.600982,29.2976171 11.4153985,28.8977289 11.187111,28.4069661 C11.551493,28.2437099 11.783173,28.1281778 12.0236333,28.0345192 C12.5991415,27.8106136 13.1786407,27.5972471 13.7473641,27.3830852 L13.7473641,27.3830852 Z M19.296474,26.9669565 L19.7484563,26.9681146 C20.0546266,26.9705581 20.3715952,26.9752032 20.7059646,26.9752032 L20.7059646,28.4745354 C19.8307292,28.2705149 19.0343169,28.1070599 18.2548664,27.8843474 C18.0966216,27.8392083 17.8657399,27.5083212 17.9072467,27.4184408 C17.9930541,27.2317203 18.231918,27.0076159 18.4212929,26.9950883 C18.709925,26.9755214 18.9994511,26.9684264 19.296474,26.9669565 Z M13.6086156,25.7118071 C13.6958198,26.0802769 13.7548872,26.330033 13.8460825,26.7152063 C13.2411737,26.8646093 12.6516968,27.0100352 12.0639938,27.1550193 L11.1820623,27.3726058 C10.790142,26.4972662 10.9709362,26.030962 11.9509364,25.9725 C12.4687741,25.9412804 12.9808247,25.814215 13.6086156,25.7118071 L13.6086156,25.7118071 Z M19.5428163,25.0016096 L19.9144812,25.0039194 L19.9144812,25.0039194 C20.1491545,25.0154527 20.3664667,25.3735824 20.591761,25.5736259 C20.3678635,25.7712832 20.1613271,26.1093289 19.9164767,26.1397531 C19.7009605,26.1665316 19.4836261,26.1784847 19.261229,26.1825206 L18.9234308,26.1835002 C18.5810243,26.1802688 18.2235767,26.1669956 17.8401374,26.1669956 C17.8189848,25.8317337 17.8028211,25.5774041 17.7864578,25.3175065 C17.8898258,25.2526813 17.9652565,25.1685676 18.0490684,25.1590228 C18.6704736,25.0886297 19.2964684,24.9734953 19.9144812,25.0039194 Z M12.2439993,23.0599047 L12.366241,23.0656994 C12.5724639,23.0834122 12.7907299,23.1417127 13.0151876,23.2453061 C13.2724102,23.3640198 13.382563,23.9414815 13.4228725,24.3220812 C13.442229,24.5050236 13.1750288,24.8470463 12.97847,24.9001394 C12.4328614,25.0476201 11.8686833,25.1270222 11.2306201,25.2301759 L10.8384735,25.2956529 L10.8384735,25.2956529 L10.8386731,24.6418327 C10.8460411,23.6809262 11.439313,23.0532413 12.2439993,23.0599047 Z M19.322124,22.1616051 L19.3969537,22.1637384 C19.9262773,22.1976467 20.0353499,22.6404921 20.1955902,23.9624602 C19.5516357,24.0280808 18.907282,24.0978773 18.2619306,24.1565382 L18.147177,24.1633739 L18.147177,24.1633739 L18.0277107,24.1648359 C17.9045408,24.1643491 17.7682387,24.1591233 17.600615,24.1591233 C17.5293749,23.6061202 17.4645205,23.1046195 17.393879,22.5577808 C18.3415676,22.3449062 18.9345088,22.1631708 19.322124,22.1616051 Z M18.2988677,15.2917664 C19.0777194,16.0992979 19.6330729,16.6745722 20.1880272,17.2500454 C19.8617596,17.5519003 19.5680189,18.0541965 19.2022399,18.113255 L19.1000916,18.1223794 C18.3662891,18.1386311 17.263782,17.1773294 17.3893093,16.6524998 C17.4832983,16.258776 17.8550639,15.9312693 18.2988677,15.2917664 L18.2988677,15.2917664 Z M11.4528641,15.8174405 L11.5857077,15.8232745 C11.6297628,15.8268388 11.6735464,15.832052 11.7169217,15.8390027 C12.068732,15.8952774 12.5350852,16.3729161 12.6161034,16.7328354 C12.7596421,17.3698311 11.9117879,17.8811098 10.5376041,17.9092245 L10.3469967,17.9100299 C10.2045165,17.7089921 9.78805133,17.3657763 9.71581347,16.9613145 C9.6203913,16.4274915 10.5636294,15.8103485 11.4528641,15.8174405 Z M14.6179899,14.5915345 C15.0230307,15.6365929 14.9578028,15.8545437 13.7977554,16.5014724 L13.6401847,16.5883904 C13.2616344,15.3517396 13.355823,15.1719789 14.6179899,14.5915345 L14.6179899,14.5915345 Z M15.7825359,14.5752884 C17.0608825,15.2271996 17.1521081,15.334827 16.7836026,16.3831968 L16.7351975,16.5192502 C15.5085509,15.9924954 15.3976,15.7664024 15.7825359,14.5752884 L15.7825359,14.5752884 Z M19.622571,13.1443528 L19.7532684,13.150586 C20.6244307,13.2228756 21.476371,13.8977341 21.3399815,14.4479446 C21.2572173,14.7820133 20.9362658,15.0574677 20.7335295,15.2791036 L20.6549192,15.3708094 C19.332288,15.1194625 18.2590969,14.7748547 18.445279,14.0528288 C18.5392681,13.6881371 19.0088141,13.2126857 19.3632186,13.1611835 C19.448731,13.1486991 19.5355049,13.1433313 19.622571,13.1443528 Z M11.0495971,13.0425341 L11.1629205,13.0449674 C11.6455874,13.0693674 12.0132155,13.2804832 12.0386995,13.9355667 C12.0672471,14.6761325 11.5633761,14.8784012 10.9518234,14.9021217 L10.8359991,14.9045648 L10.8359991,14.9045648 L10.667178,14.9045648 C10.5718131,14.9124351 10.4792652,14.9188226 10.389968,14.92294 L10.2585146,14.9273153 L10.2585146,14.9273153 L10.1322628,14.9276951 C9.51454972,14.918622 9.10409708,14.7375828 9.08393181,14.0524907 C9.06118288,13.2747867 9.62870899,13.0866742 10.2958116,13.0920432 C10.427516,13.0930374 10.5604176,13.084288 10.6913238,13.0679823 C10.8140836,13.0527176 10.9344383,13.043181 11.0495971,13.0425341 Z M15.8614189,11.838331 C17.4386146,12.6765571 17.770207,13.1422146 17.4495835,14.2915878 L17.4061515,14.4388969 C15.5273687,13.2434081 15.3721172,12.97496 15.8614189,11.838331 L15.8614189,11.838331 Z M14.9322246,12.0167595 C15.1129118,13.2207491 14.970366,13.4355213 13.1932383,14.1726768 L12.9889864,14.2568095 C12.5000838,13.2021069 13.1043275,12.7214854 14.9322246,12.0167595 L14.9322246,12.0167595 Z M20.6412698,10.3556625 C21.0832777,10.6189404 21.6098956,10.8094391 21.9275826,11.1789032 C22.0668699,11.3405686 21.8238155,12.1568496 21.6773442,12.1793197 C21.4362188,12.2163059 21.1912797,12.2418029 20.9450029,12.2555973 L20.5748938,12.267485 C20.2044005,12.2705424 19.8336826,12.2470283 19.4710965,12.196222 C19.2839166,12.1697749 19.007537,11.5883363 19.055629,11.3109399 C19.1953155,10.5042037 19.8632163,10.474575 20.6412698,10.3556625 L20.6412698,10.3556625 Z M10.5363816,10.5110293 L10.7911302,10.5179896 C11.1289894,10.536847 11.4577235,10.5948 11.7544974,10.7013043 C12.3365908,10.9102961 12.0256887,11.9453125 11.337234,12.1183124 C11.1017625,12.1774704 10.8489688,12.1675831 10.5241147,12.1766833 L10.320117,12.1851262 C10.1219618,12.1552986 9.77055061,12.1712066 9.48359472,12.043147 C8.96176603,11.8106908 8.81150332,10.7820376 9.28623771,10.6651135 C9.6785571,10.568671 10.1101384,10.5111536 10.5363816,10.5110293 Z M14.9460336,9.38755917 C15.2373653,10.5142741 14.8766643,10.9858867 12.9399565,11.8227899 L12.7182341,11.9173343 C12.5727607,10.597564 13.2314821,9.87175996 14.9460336,9.38755917 L14.9460336,9.38755917 Z M16.1616849,8.96488271 C16.8671089,9.98684133 18.444276,10.190277 18.1513661,11.7254917 L18.1091136,11.9086644 C16.6286367,11.5453647 15.7360403,10.3383426 16.1616849,8.96488271 L16.1616849,8.96488271 Z M11.3043678,7.77229717 C11.9157953,7.83712241 12.3835454,8.1596578 12.2179172,8.78404813 C12.1269464,9.12733854 11.7655513,9.39953059 11.4764986,9.69067713 L11.3580473,9.81687724 L11.3580473,9.81687724 L11.148318,9.60609579 C10.8851088,9.5868073 10.6215005,9.56990501 10.3586905,9.54663951 C10.2607104,9.5378901 10.1176315,9.54842917 10.0743287,9.49116025 C9.80353657,9.13124098 9.27711818,8.68780453 9.34815872,8.39569325 C9.49069096,7.80899804 9.81166577,7.64299665 10.1932126,7.62979084 L10.289793,7.62951759 C10.6154793,7.63818402 10.9764083,7.73745511 11.3043678,7.77229717 Z M22,7.53212249 L22,9.49747347 L19.0541912,9.49747347 L19.0541912,7.53212249 L22,7.53212249 Z M16.3191115,6.64640606 C17.5578129,6.90492969 18.2517717,7.76933249 18.1524522,8.98278619 L18.1328403,9.15848348 C16.537621,8.42094725 16.11038,7.81206725 16.3191115,6.64640606 L16.3191115,6.64640606 Z M15.3810172,6.74314679 C15.459303,8.00584699 15.0837259,8.42266072 13.4313223,8.86297876 L13.2268525,8.91598539 C13.0769889,7.64871163 13.4254068,7.28859351 15.3810172,6.74314679 L15.3810172,6.74314679 Z M11.2529572,4.80266195 L11.3782754,4.80730982 C12.2183296,4.87386421 13.131668,5.6363652 12.9957911,6.16928434 C12.9102332,6.50457102 12.5904603,6.7804822 12.4118581,6.9719736 L12.3450518,7.04879978 C11.1070307,7.00425728 9.97497176,6.21223604 10.1601561,5.64034221 C10.2758963,5.28320685 10.7689895,4.84553706 11.1295801,4.80914743 C11.1702887,4.80505292 11.2114612,4.80292966 11.2529572,4.80266195 Z M21.3667813,5.36215047 C21.5701249,6.15556367 20.9934194,6.45642436 20.3099535,6.58607484 C20.0629651,6.63277628 19.8174427,6.68926603 19.4340235,6.77295018 L19.2301772,6.81713903 C19.0202484,6.59482426 18.5501037,6.32478538 18.4778659,5.97361553 C18.3156301,5.18437819 18.9300509,4.9328324 19.5977522,4.80596583 C19.8981065,4.74878213 20.2174835,4.65346784 20.5051771,4.64433869 L20.599832,4.64465821 C20.942087,4.6587845 21.2285963,4.8222905 21.3667813,5.36215047 Z M16.7286921,4.06210615 C17.2347562,4.85213889 18.0032313,5.34230519 18.0018363,6.27312404 L17.8825025,6.38676706 L17.8825025,6.38676706 L17.7631701,6.50041007 C17.1756888,5.999307 16.5880079,5.49840278 15.9316811,4.93863883 C16.2112536,4.63141492 16.4187878,4.40313463 16.7286921,4.06210615 L16.7286921,4.06210615 Z M15.0164355,3.95365313 C15.2852322,4.31297585 15.4708156,4.56134003 15.721453,4.896403 C15.2056109,5.38040494 14.8222714,5.78307705 14.3896424,6.12370783 C14.2536144,6.23092135 14.0384585,6.23857157 13.8401398,6.26748773 L13.7239367,6.28835598 C13.7371072,6.07817108 13.6776406,5.82225058 13.776818,5.66635185 C14.1044825,5.15013614 14.489618,4.67011122 15.0164355,3.95365313 L15.0164355,3.95365313 Z M16.1154886,0.00126230024 C17.5811986,0.0322829667 20.3431989,1.90704478 20.6469172,3.43859076 C19.9183525,3.75297328 19.1851982,4.11865921 18.4145281,4.3710004 L18.3243594,4.38640821 C18.0995351,4.39606488 17.7838437,4.23048772 17.590378,4.07511097 C17.029493,3.62451591 16.4748665,3.3988614 15.9372248,3.39465804 L15.7910245,3.39899957 C15.1593841,3.44158242 14.5528282,3.79302176 13.9890616,4.44755782 C13.8842302,4.56938685 13.6389142,4.65666009 13.4221563,4.67214096 L13.3169398,4.67372631 C13.2494255,4.67056489 13.1882148,4.65873697 13.1395684,4.63686342 C12.4860353,4.34296249 11.8861818,3.93034786 11.13407,3.48631486 C12.3888535,1.5896795 13.5997355,-0.0520296138 16.1154886,0.00126230024 L16.1154886,0.00126230024 Z" id="Combined-Shape" fill="#A7A7A7"></path>
                <path d="M0,19 C0,27.8 7.2,35 16,35 C24.8,35 32,27.8 32,19 C32,10.2 24.8,3 16,3 C7.2,3 0,10.2 0,19 Z M16,6.2 C18.88,6.2 21.6,7.16 23.84,8.92 L5.92,26.84 C4.16,24.6 3.2,21.88 3.2,19 C3.2,11.96 8.96,6.2 16,6.2 Z M8.16,29.08 L26.08,11.16 C27.84,13.4 28.8,16.12 28.8,19 C28.8,26.04 23.04,31.8 16,31.8 C13.12,31.8 10.4,30.84 8.16,29.08 Z" id="Shape" fill="#EB737F" opacity="0.9"></path>
            </g>
        </g>
    </g>
</svg>