<?xml version="1.0" encoding="UTF-8"?>
<svg width="200px" height="164px" viewBox="0 0 200 164" version="1.1" xmlns="http://www.w3.org/2000/svg" xmlns:xlink="http://www.w3.org/1999/xlink">
    <title>img_webpage_danger</title>
    <g id="Webpages" stroke="none" stroke-width="1" fill="none" fill-rule="evenodd">
        <g id="web_block" transform="translate(-378.000000, -208.000000)">
            <g id="img_webpage_danger" transform="translate(378.000000, 208.000000)">
                <polygon id="Fill-1" fill="#6F6F6E" opacity="0.113816034" points="199.169511 80.4391111 175.351733 136.704 118.728622 159.648 62.4655111 135.832889 39.5197333 79.2071111 63.3348444 22.944 119.957956 1.26318709e-14 176.224622 23.8133333"></polygon>
                <polygon id="Fill-29" fill="#6F6F6E" opacity="0.113816034" points="54.4168889 147.391378 38.4773333 163.329156 15.9377778 163.329156 2.2105774e-14 147.391378 2.2105774e-14 124.850933 15.9377778 108.912267 38.4773333 108.912267 54.4168889 124.850933"></polygon>
                <polygon id="Fill-34" fill="#6F6F6E" opacity="0.113816034" points="187.224622 32.1318222 181.396178 37.9602667 173.155289 37.9602667 167.327733 32.1318222 167.327733 23.8900444 173.155289 18.0624889 181.396178 18.0624889 187.224622 23.8900444"></polygon>
                <polygon id="Fill-7" fill="#F2F2F3" points="120.810933 136.0936 115.280267 141.623378 107.459822 141.623378 101.930933 136.0936 101.930933 128.273156 107.459822 122.742489 115.280267 122.742489 120.810933 128.273156"></polygon>
                <polygon id="Fill-9" fill="#FEFEFE" points="44.7393778 22.5702222 41.9864889 22.5702222 41.9864889 25.324 40.4122667 25.324 40.4122667 22.5702222 37.6593778 22.5702222 37.6593778 20.9968889 40.4122667 20.9968889 40.4122667 18.244 41.9864889 18.244 41.9864889 20.9968889 44.7393778 20.9968889"></polygon>
                <path d="M163.655022,148.471111 L26.8879111,148.471111 C25.0470222,148.471111 23.5554667,146.978667 23.5554667,145.137778 L23.5554667,41.1466667 C23.5554667,35.3386667 28.2639111,30.6293333 34.0728,30.6293333 L156.470133,30.6293333 C162.279022,30.6293333 166.988356,35.3386667 166.988356,41.1466667 L166.988356,145.137778 C166.988356,146.978667 165.495911,148.471111 163.655022,148.471111" id="Fill-11" fill="#C2C0B5" opacity="0.475330171"></path>
                <path d="M36.4329618,43.7950222 C34.5882542,43.7950222 33.0935111,42.7168 33.0935111,41.3870222 C33.0935111,40.0563556 34.5882542,38.9781333 36.4329618,38.9781333 L154.199737,38.9781333 C156.044445,38.9781333 157.537956,40.0563556 157.537956,41.3870222 C157.537956,42.7168 156.044445,43.7950222 154.199737,43.7950222 L36.4329618,43.7950222 Z" id="Fill-19" fill="#FEFEFE"></path>
                <path d="M20.5444444,102.408711 C20.3604444,102.408711 20.2111111,102.259378 20.2111111,102.075378 L20.2111111,60.8727111 C20.2111111,60.6887111 20.3604444,60.5393778 20.5444444,60.5393778 C20.7284444,60.5393778 20.8777778,60.6887111 20.8777778,60.8727111 L20.8777778,102.075378 C20.8777778,102.259378 20.7284444,102.408711 20.5444444,102.408711" id="Fill-21" fill="#CCCBCB" opacity="0.505022321"></path>
                <path d="M16.8530667,97.2073778 C16.6690667,97.2073778 16.5197333,97.0580444 16.5197333,96.8740444 L16.5197333,63.9131556 C16.5197333,63.7291556 16.6690667,63.5798222 16.8530667,63.5798222 C17.0370667,63.5798222 17.1864,63.7291556 17.1864,63.9131556 L17.1864,96.8740444 C17.1864,97.0580444 17.0370667,97.2073778 16.8530667,97.2073778" id="Fill-23" fill="#CCCBCB" opacity="0.505022321"></path>
                <path d="M171.717689,127.262933 C171.533689,127.262933 171.384356,127.1136 171.384356,126.9296 L171.384356,85.7278222 C171.384356,85.5438222 171.533689,85.3944889 171.717689,85.3944889 C171.901689,85.3944889 172.051022,85.5438222 172.051022,85.7278222 L172.051022,126.9296 C172.051022,127.1136 171.901689,127.262933 171.717689,127.262933" id="Fill-25" fill="#CCCBCB" opacity="0.505022321"></path>
                <path d="M175.409067,124.222933 C175.225067,124.222933 175.075733,124.0736 175.075733,123.8896 L175.075733,90.9287111 C175.075733,90.7447111 175.225067,90.5953778 175.409067,90.5953778 C175.593067,90.5953778 175.7424,90.7447111 175.7424,90.9287111 L175.7424,123.8896 C175.7424,124.0736 175.593067,124.222933 175.409067,124.222933" id="Fill-27" fill="#CCCBCB" opacity="0.505022321"></path>
                <polygon id="Fill-39" fill="#80807F" opacity="0.203683036" points="44.6907556 130.771556 39.1885333 130.771556 39.1885333 136.272889 36.0445333 136.272889 36.0445333 130.771556 30.5423111 130.771556 30.5423111 127.627556 36.0445333 127.627556 36.0445333 122.125333 39.1885333 122.125333 39.1885333 127.627556 44.6907556 127.627556"></polygon>
                <polygon id="Fill-41" fill="#EFEAE1" opacity="0.339076451" points="23.6425778 142.76 167.087022 142.76 167.087022 51.0124444 23.6425778 51.0124444"></polygon>
                <path d="M123.103885,125.740444 C130.962543,125.740444 134.142408,120.232053 130.206639,113.437673 L102.237627,65.1543265 C98.301712,58.3596937 91.9201857,58.359947 87.9844171,65.1543265 L60.0154051,113.437673 C56.0794898,120.232306 59.2531555,125.740444 67.1181596,125.740444 L123.103885,125.740444 Z" id="Shape" fill="#E74247" opacity="0.526157924"></path>
                <path d="M91.2653325,81.296 L98.9567119,81.296 C99.9385515,81.296 100.73449,82.0919382 100.73449,83.0737778 C100.73449,83.1230538 100.732441,83.1723084 100.728349,83.2214142 L99.2468673,100.999192 C99.1700833,101.9206 98.3998325,102.629333 97.4752304,102.629333 L92.746814,102.629333 C91.822212,102.629333 91.0519611,101.9206 90.9751771,100.999192 L89.4936956,83.2214142 C89.4121583,82.2429661 90.1392481,81.3836782 91.1176961,81.3021409 C91.1668019,81.2980487 91.2160566,81.296 91.2653325,81.296 Z" id="Rectangle" fill="#FFFFFF"></path>
                <rect id="Rectangle-Copy" fill="#FFFFFF" x="91.1110222" y="106.184889" width="8" height="8.88888889" rx="1.77777778"></rect>
            </g>
        </g>
    </g>
</svg>