<?xml version="1.0" encoding="UTF-8"?>
<svg width="32px" height="32px" viewBox="0 0 32 32" version="1.1" xmlns="http://www.w3.org/2000/svg" xmlns:xlink="http://www.w3.org/1999/xlink">
    <title>ico_ads</title>
    <g id="Extension" stroke="none" stroke-width="1" fill="none" fill-rule="evenodd">
        <g id="abs_01_dark_B_1" transform="translate(-220.000000, -185.000000)">
            <g id="ico_ads" transform="translate(220.000000, 185.000000)">
                <path d="M13.8017835,20.539713 C14.1315533,21.4571804 14.5636505,22.6593063 15.0980751,24.1460908 L15.2463726,24.5586321 C15.7344905,25.9165869 15.0293483,27.4131244 13.6713935,27.9012423 L13.5999094,27.9257758 L13.5999094,27.9257758 L13.5277456,27.9482315 L13.5277456,27.9482315 C12.9629804,28.1149077 12.4373271,27.8723055 12.2229126,27.3185229 C11.529091,25.5256903 10.8895419,23.7112014 10.212792,21.8610054 C11.4350696,21.4109925 12.592628,20.9848274 13.8017835,20.539713 Z M15.8072794,19.7967342 C15.9922646,20.3142941 16.160178,20.7837718 16.350514,21.3165427 C15.8562011,21.5013947 15.39807,21.6725826 14.8986611,21.8592393 C14.7135486,21.347867 14.5433419,20.8777447 14.352369,20.350259 C14.843879,20.1633445 15.3021376,19.9889339 15.8072794,19.7967342 Z M13.1885298,12.5092332 C13.9951005,14.7525943 14.7910971,16.9669514 15.6090065,19.2418945 C15.0346863,19.4535591 14.5063576,19.6485948 13.9776467,19.8431148 C12.5761169,20.3591278 11.1801928,20.8917697 9.77140116,21.3863843 C7.85810471,22.0581164 5.89524957,21.1388836 5.22920124,19.2873986 C4.53474266,17.3570226 5.46221624,15.3772755 7.41831916,14.6444416 C9.32970461,13.9284946 11.2465683,13.2271139 13.1885298,12.5092332 Z M21.827806,5 C23.5561173,9.8038323 25.2537252,14.5223285 27,19.3765632 C23.3558442,18.2180799 19.803544,18.1507906 16.163465,19.0570038 L14.5439534,14.5657652 C14.2734403,13.8155767 14.0021203,13.063192 13.729229,12.3065534 C17.0649489,10.6305101 19.7764077,8.26146517 21.827806,5 Z M26.3772932,11.7627879 C26.6556627,12.615376 26.348246,13.4176905 25.5498288,13.877758 C25.164061,12.8064155 24.7796945,11.739198 24.377492,10.6224804 C25.3935087,10.5233512 26.1121734,10.9502898 26.3772932,11.7627879 Z" id="Combined-Shape" fill="#A7A7A7"></path>
                <path d="M0,16 C0,24.8 7.2,32 16,32 C24.8,32 32,24.8 32,16 C32,7.2 24.8,0 16,0 C7.2,0 0,7.2 0,16 Z M16,3.2 C18.88,3.2 21.6,4.16 23.84,5.92 L5.92,23.84 C4.16,21.6 3.2,18.88 3.2,16 C3.2,8.96 8.96,3.2 16,3.2 Z M8.16,26.08 L26.08,8.16 C27.84,10.4 28.8,13.12 28.8,16 C28.8,23.04 23.04,28.8 16,28.8 C13.12,28.8 10.4,27.84 8.16,26.08 Z" id="Shape-Copy" fill="#FFC15D" opacity="0.9" transform="translate(16.000000, 16.000000) scale(-1, 1) translate(-16.000000, -16.000000) "></path>
            </g>
        </g>
    </g>
</svg>