<?xml version="1.0" encoding="UTF-8"?>
<svg width="32px" height="32px" viewBox="0 0 32 32" version="1.1" xmlns="http://www.w3.org/2000/svg" xmlns:xlink="http://www.w3.org/1999/xlink">
    <title>ico_tweeter</title>
    <g id="Extension" stroke="none" stroke-width="1" fill="none" fill-rule="evenodd">
        <g id="abs_03_dark" transform="translate(-78.000000, -386.000000)" fill="#FFFFFF">
            <g id="ico_tweeter" transform="translate(78.000000, 386.000000)">
                <path d="M24.375,4.93038066e-31 C29,4.93038066e-31 32,3 32,7.625 L32,24.375 C32,29 29,32 24.375,32 L7.625,32 C3,32 -7.10542736e-14,29 -7.10542736e-14,24.375 L-7.10542736e-14,7.625 C-7.10542736e-14,3 3,2.3017207e-24 7.625,2.3017207e-24 L24.375,4.93038066e-31 Z M23.9114667,8.95585742 C21.2650667,6.34785742 18.5229333,7.95852408 18.5229333,7.95852408 C15.1477333,10.0105241 16.2768,13.0041241 16.2768,13.0041241 C10.7450667,12.7326574 7.11386667,8.21905742 7.11386667,8.21905742 C5.1464,12.1427907 8.4,14.1523907 8.4,14.1523907 C7.72376471,14.2462731 6.73258131,13.7933042 6.50872135,13.6854239 L6.46266667,13.6627907 C7.06056738,17.6885723 9.61766386,17.927074 9.94166572,17.941119 L9.97546667,17.9419907 C9.42186667,18.3889241 8.05946667,18.1547907 8.05946667,18.1547907 C9.4008,21.3694574 12.1256,21.1139907 12.1256,21.1139907 C9.95413333,23.3918574 5.86666667,22.9662574 5.86666667,22.9662574 C9.72,25.9891907 15.1914667,24.7545241 15.1914667,24.7545241 C25.5378667,22.4339907 24.9498667,11.8318574 24.9498667,11.8318574 C26.8824,10.8585241 27.108,9.51852408 27.108,9.51852408 C25.9232,10.2945241 24.8794667,10.3790574 24.8794667,10.3790574 C26.7554667,8.81345742 26.5437333,7.84012408 26.5437333,7.84012408 C25.1050667,8.89799075 23.9114667,8.95585742 23.9114667,8.95585742 Z" id="Combined-Shape"></path>
            </g>
        </g>
    </g>
</svg>