<?xml version="1.0" encoding="UTF-8"?>
<svg width="32px" height="32px" viewBox="0 0 32 32" version="1.1" xmlns="http://www.w3.org/2000/svg" xmlns:xlink="http://www.w3.org/1999/xlink">
    <title>ico_facebook</title>
    <g id="Extension" stroke="none" stroke-width="1" fill="none" fill-rule="evenodd">
        <g id="abs_03_dark" transform="translate(-228.000000, -386.000000)" fill="#FFFFFF">
            <g id="ico_facebook" transform="translate(228.000000, 386.000000)">
                <path d="M24.375,4.93038066e-31 C29,4.93038066e-31 32,3 32,7.625 L32,24.375 C32,29 29,32 24.375,32 L21.8688004,32 L21.8688004,19.4473019 L26.0188055,19.4473019 L26.7102483,14.9902253 L21.9162664,14.9902253 L21.9162667,11.6022136 C21.94,9.35144567 24.1208,9.4697809 24.1208,9.4697809 L27.084,9.4697809 L27.0840002,4.92866084 L22.3284714,4.92866084 C16.4495381,4.92866084 16.7391813,11.7219999 16.7391813,11.7219999 L16.7391813,11.7219999 L16.7391813,14.9902253 L12.7126511,14.9902253 L12.7126511,19.4473019 L16.7391813,19.4473019 L16.7391813,32 L7.625,32 C3,32 -7.10542736e-14,29 -7.10542736e-14,24.375 L-7.10542736e-14,7.625 C-7.10542736e-14,3 3,2.3017207e-24 7.625,2.3017207e-24 L24.375,4.93038066e-31 Z" id="Combined-Shape"></path>
            </g>
        </g>
    </g>
</svg>